<svg width="217" height="57" viewBox="0 0 217 57" fill="none" xmlns="http://www.w3.org/2000/svg">
<rect width="217" height="57" rx="5" fill="#3A68B8"/>
<path d="M56 28.5L36.5 40.1913L36.5 16.8087L56 28.5Z" fill="white"/>
<path d="M84.7598 21.7227L81.0293 36H78.4707L76.0879 27.4453C76.0293 27.237 75.9642 26.9896 75.8926 26.7031C75.821 26.4167 75.7493 26.1237 75.6777 25.8242C75.6126 25.5247 75.554 25.2513 75.502 25.0039C75.4564 24.75 75.4238 24.5547 75.4043 24.418C75.3913 24.5547 75.362 24.7467 75.3164 24.9941C75.2708 25.2415 75.2155 25.515 75.1504 25.8145C75.0918 26.1074 75.0267 26.4004 74.9551 26.6934C74.8835 26.9798 74.8184 27.2337 74.7598 27.4551L72.416 36H69.8672L66.1465 21.7227H68.5L70.5605 30.0918C70.6257 30.3587 70.6908 30.6484 70.7559 30.9609C70.8275 31.2669 70.8926 31.5762 70.9512 31.8887C71.0163 32.2012 71.0749 32.5072 71.127 32.8066C71.179 33.0996 71.2214 33.3665 71.2539 33.6074C71.2865 33.36 71.3288 33.0866 71.3809 32.7871C71.4329 32.4811 71.4883 32.1719 71.5469 31.8594C71.612 31.5404 71.6771 31.2344 71.7422 30.9414C71.8138 30.6484 71.8854 30.3848 71.957 30.1504L74.2812 21.7227H76.5664L78.9395 30.1797C79.0111 30.4206 79.0794 30.6908 79.1445 30.9902C79.2161 31.2897 79.2845 31.5957 79.3496 31.9082C79.4147 32.2207 79.4733 32.5234 79.5254 32.8164C79.5775 33.1094 79.6198 33.373 79.6523 33.6074C79.6979 33.2884 79.7565 32.9238 79.8281 32.5137C79.8997 32.1035 79.9811 31.6868 80.0723 31.2637C80.1634 30.8405 80.2546 30.4499 80.3457 30.0918L82.3965 21.7227H84.7598ZM90.7852 24.9844C92.1523 24.9844 93.1842 25.2871 93.8809 25.8926C94.584 26.498 94.9355 27.4421 94.9355 28.7246V36H93.3047L92.8652 34.4668H92.7871C92.4811 34.8574 92.1654 35.1797 91.8398 35.4336C91.5143 35.6875 91.1367 35.8763 90.707 36C90.2839 36.1302 89.7663 36.1953 89.1543 36.1953C88.5098 36.1953 87.9336 36.0781 87.4258 35.8438C86.918 35.6029 86.5176 35.2383 86.2246 34.75C85.9316 34.2617 85.7852 33.6432 85.7852 32.8945C85.7852 31.7812 86.1986 30.9447 87.0254 30.3848C87.8587 29.8249 89.1152 29.5156 90.7949 29.457L92.6699 29.3887V28.8223C92.6699 28.0736 92.4941 27.5397 92.1426 27.2207C91.7975 26.9017 91.3092 26.7422 90.6777 26.7422C90.1374 26.7422 89.6133 26.8203 89.1055 26.9766C88.5977 27.1328 88.1029 27.3249 87.6211 27.5527L86.8789 25.9316C87.4062 25.6517 88.0052 25.4238 88.6758 25.248C89.3529 25.0723 90.056 24.9844 90.7852 24.9844ZM92.6602 30.834L91.2637 30.8828C90.1178 30.9219 89.3138 31.1172 88.8516 31.4688C88.3893 31.8203 88.1582 32.3021 88.1582 32.9141C88.1582 33.4479 88.3177 33.8385 88.6367 34.0859C88.9557 34.3268 89.3757 34.4473 89.8965 34.4473C90.6908 34.4473 91.3483 34.2227 91.8691 33.7734C92.3965 33.3177 92.6602 32.6504 92.6602 31.7715V30.834ZM102.172 34.3398C102.471 34.3398 102.768 34.3138 103.061 34.2617C103.354 34.2031 103.62 34.1348 103.861 34.0566V35.7949C103.607 35.9056 103.279 36 102.875 36.0781C102.471 36.1562 102.051 36.1953 101.615 36.1953C101.003 36.1953 100.453 36.0944 99.9648 35.8926C99.4766 35.6842 99.0892 35.3294 98.8027 34.8281C98.5163 34.3268 98.373 33.6335 98.373 32.748V26.9375H96.8984V25.9121L98.4805 25.1016L99.2324 22.7871H100.678V25.1895H103.773V26.9375H100.678V32.7188C100.678 33.2656 100.814 33.6725 101.088 33.9395C101.361 34.2064 101.723 34.3398 102.172 34.3398ZM110.414 36.1953C109.392 36.1953 108.507 35.9967 107.758 35.5996C107.009 35.2025 106.433 34.5938 106.029 33.7734C105.626 32.9531 105.424 31.9115 105.424 30.6484C105.424 29.3333 105.645 28.2591 106.088 27.4258C106.531 26.5924 107.143 25.9772 107.924 25.5801C108.712 25.1829 109.613 24.9844 110.629 24.9844C111.273 24.9844 111.856 25.0495 112.377 25.1797C112.904 25.3034 113.35 25.4564 113.715 25.6387L113.031 27.4746C112.634 27.3118 112.227 27.1751 111.811 27.0645C111.394 26.9538 110.993 26.8984 110.609 26.8984C109.978 26.8984 109.451 27.0384 109.027 27.3184C108.611 27.5983 108.298 28.015 108.09 28.5684C107.888 29.1217 107.787 29.8086 107.787 30.6289C107.787 31.4232 107.891 32.0938 108.1 32.6406C108.308 33.181 108.617 33.5911 109.027 33.8711C109.438 34.1445 109.942 34.2812 110.541 34.2812C111.133 34.2812 111.664 34.2096 112.133 34.0664C112.602 33.9232 113.044 33.7376 113.461 33.5098V35.502C113.051 35.7363 112.611 35.9089 112.143 36.0195C111.674 36.1367 111.098 36.1953 110.414 36.1953ZM118.295 20.8047V24.623C118.295 25.0202 118.282 25.4076 118.256 25.7852C118.236 26.1628 118.214 26.4557 118.188 26.6641H118.314C118.542 26.2865 118.822 25.9772 119.154 25.7363C119.486 25.4889 119.857 25.3034 120.268 25.1797C120.684 25.056 121.127 24.9941 121.596 24.9941C122.423 24.9941 123.126 25.1341 123.705 25.4141C124.285 25.6875 124.727 26.1139 125.033 26.6934C125.346 27.2728 125.502 28.0247 125.502 28.9492V36H123.207V29.3789C123.207 28.5391 123.035 27.9108 122.689 27.4941C122.344 27.071 121.811 26.8594 121.088 26.8594C120.391 26.8594 119.838 27.0059 119.428 27.2988C119.024 27.5853 118.734 28.0117 118.559 28.5781C118.383 29.138 118.295 29.8216 118.295 30.6289V36H116V20.8047H118.295ZM144.73 21.7227L139.74 36H137.26L132.27 21.7227H134.672L137.68 30.668C137.771 30.9284 137.868 31.2441 137.973 31.6152C138.083 31.9863 138.184 32.3607 138.275 32.7383C138.373 33.1159 138.448 33.4512 138.5 33.7441C138.552 33.4512 138.624 33.1159 138.715 32.7383C138.812 32.3607 138.913 31.9863 139.018 31.6152C139.122 31.2441 139.219 30.9251 139.311 30.6582L142.328 21.7227H144.73ZM148.666 25.1895V36H146.371V25.1895H148.666ZM147.533 21.0488C147.885 21.0488 148.188 21.1432 148.441 21.332C148.702 21.5208 148.832 21.8464 148.832 22.3086C148.832 22.7643 148.702 23.0898 148.441 23.2852C148.188 23.474 147.885 23.5684 147.533 23.5684C147.169 23.5684 146.859 23.474 146.605 23.2852C146.358 23.0898 146.234 22.7643 146.234 22.3086C146.234 21.8464 146.358 21.5208 146.605 21.332C146.859 21.1432 147.169 21.0488 147.533 21.0488ZM155.59 36.1953C154.301 36.1953 153.266 35.7266 152.484 34.7891C151.71 33.8451 151.322 32.4551 151.322 30.6191C151.322 28.7637 151.716 27.3607 152.504 26.4102C153.298 25.4596 154.343 24.9844 155.639 24.9844C156.186 24.9844 156.664 25.0592 157.074 25.209C157.484 25.3522 157.836 25.5475 158.129 25.7949C158.428 26.0423 158.682 26.319 158.891 26.625H158.998C158.965 26.4232 158.926 26.1335 158.881 25.7559C158.842 25.3717 158.822 25.0169 158.822 24.6914V20.8047H161.127V36H159.33L158.92 34.5254H158.822C158.627 34.8379 158.38 35.1211 158.08 35.375C157.787 35.6224 157.436 35.821 157.025 35.9707C156.622 36.1204 156.143 36.1953 155.59 36.1953ZM156.234 34.3301C157.217 34.3301 157.911 34.0469 158.314 33.4805C158.718 32.9141 158.926 32.0645 158.939 30.9316V30.6289C158.939 29.418 158.744 28.4902 158.354 27.8457C157.963 27.1947 157.25 26.8691 156.215 26.8691C155.388 26.8691 154.757 27.2044 154.32 27.875C153.891 28.5391 153.676 29.4668 153.676 30.6582C153.676 31.8496 153.891 32.7611 154.32 33.3926C154.757 34.0176 155.395 34.3301 156.234 34.3301ZM168.725 24.9844C169.688 24.9844 170.515 25.1829 171.205 25.5801C171.895 25.9772 172.426 26.5404 172.797 27.2695C173.168 27.9987 173.354 28.8711 173.354 29.8867V31.1172H166.137C166.163 32.1654 166.443 32.9727 166.977 33.5391C167.517 34.1055 168.272 34.3887 169.242 34.3887C169.932 34.3887 170.551 34.3236 171.098 34.1934C171.651 34.0566 172.221 33.8581 172.807 33.5977V35.4629C172.266 35.7168 171.716 35.9023 171.156 36.0195C170.596 36.1367 169.926 36.1953 169.145 36.1953C168.083 36.1953 167.149 35.9902 166.342 35.5801C165.541 35.1634 164.913 34.5449 164.457 33.7246C164.008 32.9043 163.783 31.8854 163.783 30.668C163.783 29.457 163.988 28.4284 164.398 27.582C164.809 26.7357 165.385 26.0911 166.127 25.6484C166.869 25.2057 167.735 24.9844 168.725 24.9844ZM168.725 26.7129C168.002 26.7129 167.416 26.9473 166.967 27.416C166.524 27.8848 166.264 28.5716 166.186 29.4766H171.107C171.101 28.9362 171.01 28.4577 170.834 28.041C170.665 27.6243 170.404 27.2988 170.053 27.0645C169.708 26.8301 169.265 26.7129 168.725 26.7129ZM185.512 30.5703C185.512 31.4688 185.395 32.2663 185.16 32.9629C184.926 33.6595 184.584 34.2487 184.135 34.7305C183.686 35.2057 183.145 35.5703 182.514 35.8242C181.882 36.0716 181.169 36.1953 180.375 36.1953C179.633 36.1953 178.952 36.0716 178.334 35.8242C177.715 35.5703 177.178 35.2057 176.723 34.7305C176.273 34.2487 175.925 33.6595 175.678 32.9629C175.43 32.2663 175.307 31.4688 175.307 30.5703C175.307 29.3789 175.512 28.3698 175.922 27.543C176.339 26.7096 176.931 26.0749 177.699 25.6387C178.467 25.2025 179.382 24.9844 180.443 24.9844C181.439 24.9844 182.318 25.2025 183.08 25.6387C183.842 26.0749 184.438 26.7096 184.867 27.543C185.297 28.3763 185.512 29.3854 185.512 30.5703ZM177.67 30.5703C177.67 31.3581 177.764 32.0319 177.953 32.5918C178.148 33.1517 178.448 33.5814 178.852 33.8809C179.255 34.1738 179.776 34.3203 180.414 34.3203C181.052 34.3203 181.573 34.1738 181.977 33.8809C182.38 33.5814 182.676 33.1517 182.865 32.5918C183.054 32.0319 183.148 31.3581 183.148 30.5703C183.148 29.7826 183.054 29.1152 182.865 28.5684C182.676 28.015 182.38 27.5951 181.977 27.3086C181.573 27.0156 181.049 26.8691 180.404 26.8691C179.454 26.8691 178.76 27.1882 178.324 27.8262C177.888 28.4642 177.67 29.3789 177.67 30.5703Z" fill="white"/>
</svg>
